<svg xmlns="http://www.w3.org/2000/svg" viewBox="0 0 800 520" width="800" height="520" font-family="Georgia, 'Times New Roman', serif">

  <rect width="800" height="520" fill="#FAFAF8"/>

  <circle cx="100" cy="260" r="62" fill="none" stroke="#C8C0B0" stroke-width="1.2" stroke-dasharray="4 3"/>
  <circle cx="100" cy="260" r="44" fill="none" stroke="#C8C0B0" stroke-width="0.7" stroke-dasharray="2 3"/>
  <rect x="76" y="238" width="14" height="14" rx="2" fill="#D6CFC4" opacity="0.8"/>
  <circle cx="114" cy="268" r="7" fill="#D6CFC4" opacity="0.6"/>
  <polygon points="95,282 103,268 111,282" fill="#D6CFC4" opacity="0.7"/>
  <text x="100" y="345" text-anchor="middle" font-size="11" fill="#9A9080" letter-spacing="1.5">THE WORLD</text>
  <text x="100" y="360" text-anchor="middle" font-size="10" fill="#B0A898" letter-spacing="0.5">objects · events</text>
  <line x1="166" y1="260" x2="218" y2="260" stroke="#C8C0B0" stroke-width="1.2"/>
  <polygon points="218,255 228,260 218,265" fill="#C8C0B0"/>

  <path d="M 240,260 Q 290,210 340,260 Q 290,310 240,260 Z" fill="#F5F2ED" stroke="#6B6357" stroke-width="1.4"/>
  <circle cx="290" cy="260" r="28" fill="#E8E2D8" stroke="#6B6357" stroke-width="1.2"/>
  <circle cx="290" cy="260" r="13" fill="#3D3830"/>
  <circle cx="296" cy="254" r="4" fill="white" opacity="0.6"/>
  <line x1="265" y1="248" x2="278" y2="256" stroke="#9A9080" stroke-width="0.5" opacity="0.5"/>
  <line x1="263" y1="268" x2="277" y2="263" stroke="#9A9080" stroke-width="0.5" opacity="0.5"/>
  <line x1="315" y1="248" x2="302" y2="256" stroke="#9A9080" stroke-width="0.5" opacity="0.5"/>
  <line x1="317" y1="270" x2="303" y2="264" stroke="#9A9080" stroke-width="0.5" opacity="0.5"/>
  <text x="290" y="345" text-anchor="middle" font-size="11" fill="#9A9080" letter-spacing="1.5">PERCEPTION</text>
  <text x="290" y="360" text-anchor="middle" font-size="10" fill="#B0A898" letter-spacing="0.5">raw experience</text>
  <line x1="342" y1="260" x2="388" y2="260" stroke="#C8C0B0" stroke-width="1.2"/>
  <polygon points="388,255 398,260 388,265" fill="#C8C0B0"/>

  <rect x="400" y="150" width="200" height="220" rx="4" fill="#FFFFFF" stroke="#6B6357" stroke-width="1.2"/>
  <rect x="400" y="150" width="200" height="34" rx="4" fill="#3D3830"/>
  <rect x="400" y="170" width="200" height="14" fill="#3D3830"/>
  <text x="500" y="172" text-anchor="middle" font-size="11" fill="#F5F2ED" letter-spacing="2">EGO</text>
  <text x="500" y="184" text-anchor="middle" font-size="9" fill="#A09880" letter-spacing="1">beliefs · reactions · filters</text>
  <line x1="400" y1="198" x2="600" y2="198" stroke="#E0D8CC" stroke-width="0.8"/>
  <text x="430" y="193" text-anchor="middle" font-size="9" fill="#9A9080" letter-spacing="1">INPUT</text>
  <line x1="500" y1="184" x2="500" y2="370" stroke="#E0D8CC" stroke-width="0.8"/>
  <text x="552" y="193" text-anchor="middle" font-size="9" fill="#9A9080" letter-spacing="1">JUDGMENT</text>
  <line x1="400" y1="218" x2="600" y2="218" stroke="#E0D8CC" stroke-width="0.6"/>
  <text x="420" y="213" font-size="9.5" fill="#6B6357">criticism</text>
  <text x="514" y="213" font-size="9.5" fill="#B85450">● threat</text>
  <line x1="400" y1="238" x2="600" y2="238" stroke="#E0D8CC" stroke-width="0.6"/>
  <text x="420" y="233" font-size="9.5" fill="#6B6357">praise</text>
  <text x="514" y="233" font-size="9.5" fill="#5A8A5A">● safe</text>
  <line x1="400" y1="258" x2="600" y2="258" stroke="#E0D8CC" stroke-width="0.6"/>
  <text x="420" y="253" font-size="9.5" fill="#6B6357">silence</text>
  <text x="514" y="253" font-size="9.5" fill="#B85450">● danger</text>
  <line x1="400" y1="278" x2="600" y2="278" stroke="#E0D8CC" stroke-width="0.6"/>
  <text x="420" y="273" font-size="9.5" fill="#6B6357">success</text>
  <text x="514" y="273" font-size="9.5" fill="#5A8A5A">● worthy</text>
  <line x1="400" y1="298" x2="600" y2="298" stroke="#E0D8CC" stroke-width="0.6"/>
  <text x="420" y="293" font-size="9.5" fill="#6B6357">failure</text>
  <text x="514" y="293" font-size="9.5" fill="#B85450">● shame</text>
  <line x1="400" y1="318" x2="600" y2="318" stroke="#E0D8CC" stroke-width="0.6"/>
  <text x="420" y="313" font-size="9.5" fill="#C0B8AC" font-style="italic">unknown</text>
  <text x="514" y="313" font-size="9.5" fill="#B85450">● fear</text>
  <text x="495" y="344" text-anchor="middle" font-size="13" fill="#C0B8AC" letter-spacing="4">· · ·</text>
  <text x="500" y="400" text-anchor="middle" font-size="11" fill="#9A9080" letter-spacing="1.5">THE FILTER</text>
  <text x="500" y="415" text-anchor="middle" font-size="10" fill="#B0A898" letter-spacing="0.5">conditioned lookup</text>
  <line x1="602" y1="260" x2="648" y2="260" stroke="#C8C0B0" stroke-width="1.2"/>
  <polygon points="648,255 658,260 648,265" fill="#C8C0B0"/>

  <circle cx="700" cy="210" r="34" fill="none" stroke="#5A8A5A" stroke-width="1.2"/>
  <text x="700" y="205" text-anchor="middle" font-size="10" fill="#5A8A5A" letter-spacing="0.5">good</text>
  <text x="700" y="220" text-anchor="middle" font-size="9" fill="#7AAA7A">approach</text>
  <text x="700" y="233" text-anchor="middle" font-size="9" fill="#7AAA7A">desire · relief</text>
  <line x1="666" y1="260" x2="734" y2="260" stroke="#E0D8CC" stroke-width="0.8" stroke-dasharray="3 2"/>
  <circle cx="700" cy="310" r="34" fill="none" stroke="#B85450" stroke-width="1.2"/>
  <text x="700" y="305" text-anchor="middle" font-size="10" fill="#B85450" letter-spacing="0.5">bad</text>
  <text x="700" y="320" text-anchor="middle" font-size="9" fill="#C87468">avoid</text>
  <text x="700" y="333" text-anchor="middle" font-size="9" fill="#C87468">fear · anger</text>
  <text x="700" y="400" text-anchor="middle" font-size="11" fill="#9A9080" letter-spacing="1.5">RESPONSE</text>
  <text x="700" y="415" text-anchor="middle" font-size="10" fill="#B0A898" letter-spacing="0.5">felt reaction</text>
  <path d="M 658,260 Q 672,260 672,230 L 666,230" stroke="#C8C0B0" stroke-width="1" fill="none"/>
  <polygon points="666,225 658,230 666,235" fill="#C8C0B0"/>
  <path d="M 658,260 Q 672,260 672,290 L 666,290" stroke="#C8C0B0" stroke-width="1" fill="none"/>
  <polygon points="666,285 658,290 666,295" fill="#C8C0B0"/>

  <text x="400" y="58" text-anchor="middle" font-size="18" fill="#3D3830" letter-spacing="3" font-weight="normal">THE EGO AS FILTER</text>
  <line x1="290" y1="68" x2="510" y2="68" stroke="#C8C0B0" stroke-width="0.8"/>
  <text x="400" y="86" text-anchor="middle" font-size="11" fill="#9A9080" letter-spacing="1.5" font-style="italic">how conditioned beliefs shape what we see</text>

</svg>